<?xml version="1.0" encoding="UTF-8" standalone="no"?>
<svg
   xmlns:dc="http://purl.org/dc/elements/1.1/"
   xmlns:cc="http://creativecommons.org/ns#"
   xmlns:rdf="http://www.w3.org/1999/02/22-rdf-syntax-ns#"
   xmlns:svg="http://www.w3.org/2000/svg"
   xmlns="http://www.w3.org/2000/svg"
   xmlns:sodipodi="http://sodipodi.sourceforge.net/DTD/sodipodi-0.dtd"
   xmlns:inkscape="http://www.inkscape.org/namespaces/inkscape"
   version="1.1"
   id="Capa_1"
   x="0px"
   y="0px"
   viewBox="0 0 512.00118 608.0797"
   xml:space="preserve"
   width="511.99518"
   height="608.07257"
   class=""
   inkscape:version="0.91 r13725"
   sodipodi:docname="diamondhands.svg"><metadata
     id="metadata283998"><rdf:RDF><cc:Work
         rdf:about=""><dc:format>image/svg+xml</dc:format><dc:type
           rdf:resource="http://purl.org/dc/dcmitype/StillImage" /><dc:title></dc:title><dc:description>remix by j4p4n</dc:description><cc:license
           rdf:resource="http://creativecommons.org/publicdomain/zero/1.0/" /></cc:Work><cc:License
         rdf:about="http://creativecommons.org/publicdomain/zero/1.0/"><cc:permits
           rdf:resource="http://creativecommons.org/ns#Reproduction" /><cc:permits
           rdf:resource="http://creativecommons.org/ns#Distribution" /><cc:permits
           rdf:resource="http://creativecommons.org/ns#DerivativeWorks" /></cc:License></rdf:RDF></metadata><defs
     id="defs283996" /><sodipodi:namedview
     pagecolor="#ffffff"
     bordercolor="#666666"
     borderopacity="1"
     objecttolerance="10"
     gridtolerance="10"
     guidetolerance="10"
     inkscape:pageopacity="0"
     inkscape:pageshadow="2"
     inkscape:window-width="1916"
     inkscape:window-height="1035"
     id="namedview283994"
     showgrid="false"
     fit-margin-top="0"
     fit-margin-left="0"
     fit-margin-right="0"
     fit-margin-bottom="0"
     inkscape:zoom="0.4609375"
     inkscape:cx="-119.32396"
     inkscape:cy="256.00102"
     inkscape:window-x="4"
     inkscape:window-y="1"
     inkscape:window-maximized="1"
     inkscape:current-layer="g283948" /><g
     id="g283944"
     transform="translate(-0.00192143,96.072657)"><g
       id="g283946"><g
         transform="translate(0,-1)"
         id="g283948"><g
           id="g284613"><g
             id="g284601"><g
               id="g283974"><path
                 inkscape:connector-curvature="0"
                 style="fill:#fdd7ad"
                 d="m 203.037,399.483 0,25.247 2.482,11.172 -88.183,2.069 0.25,-13.241 -63.823,-63.823 C 46.476,353.689 40.581,345.19 36.373,335.837 L 1.768,259.742 c -1.171,-2.516 -1.774,-5.258 -1.766,-8.033 0.026,-10.666 8.666,-19.306 19.332,-19.332 7.743,-0.029 14.743,4.603 17.743,11.741 l 19.774,46.08 c 0.53,1.235 1.148,2.56 1.766,3.796 0.382,0.955 0.855,1.872 1.412,2.737 0,0.177 0.088,0.265 0.177,0.441 0.177,0.353 0.441,0.794 0.618,1.148 l 3.354,-1.766 0,-0.088 c 3.192,-3.21 7.049,-5.681 11.299,-7.239 10.657,-4.106 22.704,-2.075 31.426,5.297 2.472,2.119 5.12,4.237 7.857,6.444 13.607,11.589 28.986,20.917 45.55,27.63 5.68,1.915 10.951,4.879 15.537,8.739 3.631,2.88 6.918,6.168 9.799,9.799 11.539,14.986 17.668,33.435 17.391,52.347 z"
                 data-original="#FDD7AD"
                 class=""
                 id="path283976" /><path
                 inkscape:connector-curvature="0"
                 style="fill:#fdd7ad"
                 d="m 512.003,251.709 c 0.008,2.775 -0.594,5.518 -1.766,8.033 l -34.604,76.094 c -4.208,9.354 -10.103,17.852 -17.39,25.07 l -63.823,63.823 -0.26,15.994 -85.927,-2.752 0.736,-13.241 0,-25.247 c -0.277,-18.912 5.852,-37.361 17.39,-52.348 2.88,-3.631 6.168,-6.918 9.799,-9.799 4.586,-3.86 9.856,-6.825 15.537,-8.739 16.564,-6.713 31.943,-16.042 45.55,-27.63 2.737,-2.207 5.385,-4.326 7.857,-6.444 12.591,-10.529 31.141,-9.685 42.726,1.942 l 0,0.088 3.354,1.766 c 0.794,-1.501 1.589,-3.001 2.295,-4.502 0.618,-1.148 1.148,-2.383 1.677,-3.619 l 19.774,-46.08 c 3.001,-7.138 10.001,-11.77 17.743,-11.741 10.666,0.026 19.306,8.666 19.332,19.332 z"
                 data-original="#FDD7AD"
                 class=""
                 id="path283978" /></g><g
               id="g283980"><path
                 inkscape:connector-curvature="0"
                 style="fill:#fac176"
                 d="m 121.029,351.549 c -3.481,3.414 -9.054,3.414 -12.535,0 L 75.744,318.71 c -5.962,-5.85 -10.993,-12.578 -14.919,-19.95 -0.282,-0.497 -0.49,-1.032 -0.618,-1.589 0.177,0.353 0.441,0.794 0.618,1.148 l 3.354,-1.766 0,-0.088 c 3.192,-3.21 7.049,-5.681 11.299,-7.239 0.343,0.375 0.64,0.79 0.883,1.236 3.151,5.816 7.137,11.139 11.829,15.801 l 32.839,32.75 c 3.443,3.47 3.443,9.067 0,12.536 z"
                 data-original="#FAC176"
                 class=""
                 id="path283982" /><path
                 inkscape:connector-curvature="0"
                 style="fill:#fac176"
                 d="m 390.998,351.549 c 3.481,3.414 9.054,3.414 12.535,0 l 32.75,-32.839 c 5.962,-5.85 10.993,-12.578 14.919,-19.95 0.282,-0.497 0.49,-1.032 0.618,-1.589 -0.177,0.353 -0.441,0.794 -0.618,1.148 l -3.354,-1.766 0,-0.088 c -3.192,-3.21 -7.049,-5.681 -11.299,-7.239 -0.343,0.375 -0.64,0.79 -0.883,1.236 -3.151,5.816 -7.137,11.139 -11.829,15.801 l -32.839,32.75 c -3.442,3.47 -3.442,9.067 0,12.536 z"
                 data-original="#FAC176"
                 class=""
                 id="path283984" /></g><path
               inkscape:connector-curvature="0"
               style="fill:#949a99"
               d="m 114.761,424.73 97.103,0 c 4.875,0 8.828,3.952 8.828,8.828 l 0,70.621 c 0,4.875 -3.952,8.828 -8.828,8.828 l -97.103,0 c -4.875,0 -8.828,-3.952 -8.828,-8.828 l 0,-70.621 c 10e-4,-4.876 3.953,-8.828 8.828,-8.828 z"
               data-original="#949A99"
               class=""
               data-old_color="#959B9A"
               id="path283986" /><path
               inkscape:connector-curvature="0"
               style="fill:#696e69"
               d="m 194.21,477.695 -8.828,0 c -4.875,0 -8.828,-3.952 -8.828,-8.828 0,-4.876 3.952,-8.828 8.828,-8.828 l 8.828,0 c 4.875,0 8.828,3.952 8.828,8.828 0,4.876 -3.953,8.828 -8.828,8.828 z"
               data-original="#696E69"
               class="active-path"
               data-old_color="#6A6E6A"
               id="path283988" /><path
               inkscape:connector-curvature="0"
               style="fill:#949a99"
               d="m 300.141,424.73 97.103,0 c 4.875,0 8.828,3.952 8.828,8.828 l 0,70.621 c 0,4.875 -3.952,8.828 -8.828,8.828 l -97.103,0 c -4.875,0 -8.828,-3.952 -8.828,-8.828 l 0,-70.621 c 0,-4.876 3.952,-8.828 8.828,-8.828 z"
               data-original="#949A99"
               class=""
               data-old_color="#959B9A"
               id="path283990" /><path
               inkscape:connector-curvature="0"
               style="fill:#696e69"
               d="m 326.624,477.695 -8.828,0 c -4.875,0 -8.828,-3.952 -8.828,-8.828 0,-4.876 3.952,-8.828 8.828,-8.828 l 8.828,0 c 4.875,0 8.828,3.952 8.828,8.828 0,4.876 -3.953,8.828 -8.828,8.828 z"
               data-original="#696E69"
               class="active-path"
               data-old_color="#6A6E6A"
               id="path283992" /></g><g
             id="layer1"
             inkscape:label="Layer 1"
             transform="matrix(0.84136776,0,0,0.80114181,37.668997,-455.87707)"><g
               id="g3990"
               transform="matrix(2.6667,0,0,2.6667,-838.61,-1901.4)"><path
                 id="path3940"
                 sodipodi:nodetypes="cccccc"
                 style="fill:#c1deff"
                 inkscape:connector-curvature="0"
                 d="m 415.17,1106.9 100,-170 -50,-55 -100,0 -50,55 z" /><path
                 id="path3942"
                 d="m 415.17,1094.5 92.5,-157.25 -46.25,-50.875 -92.5,0 -46.25,50.875 z"
                 sodipodi:nodetypes="cccccc"
                 style="fill:#ffffff"
                 inkscape:connector-curvature="0" /><path
                 id="path3944"
                 d="m 415.17,1086.8 87.5,-148.75 -43.75,-48.125 -87.5,0 -43.75,48.125 z"
                 sodipodi:nodetypes="cccccc"
                 style="fill:#c1deff"
                 inkscape:connector-curvature="0" /><path
                 id="path3946"
                 sodipodi:nodetypes="cc"
                 style="fill:none;stroke:#ffffff;stroke-width:5.01060009"
                 inkscape:connector-curvature="0"
                 d="m 327.58,937.91 175.24,0" /><path
                 id="path3948"
                 sodipodi:nodetypes="ccc"
                 style="fill:none;stroke:#ffffff;stroke-width:5"
                 inkscape:connector-curvature="0"
                 d="m 415.17,1087.9 -25,-147 12.437,-52" /><path
                 id="path3950"
                 d="m 415.17,1087.9 25,-147 -12.25,-52"
                 sodipodi:nodetypes="ccc"
                 style="fill:none;stroke:#ffffff;stroke-width:4.99989986"
                 inkscape:connector-curvature="0" /><path
                 id="path3952"
                 sodipodi:nodetypes="ccc"
                 style="fill:none;stroke:#ffffff;stroke-width:5"
                 inkscape:connector-curvature="0"
                 d="m 371.51,887.36 -11.339,53.548 51.875,141.8" /><path
                 id="path3954"
                 d="m 458.7,887.36 11.339,53.548 -51.875,141.8"
                 sodipodi:nodetypes="ccc"
                 style="fill:none;stroke:#ffffff;stroke-width:5"
                 inkscape:connector-curvature="0" /></g></g></g></g></g></g></svg>